<svg width="34" height="35" viewBox="0 0 34 35" fill="none" xmlns="http://www.w3.org/2000/svg">
<rect y="0.727539" width="34" height="34" rx="17" fill="url(#paint0_linear_104_540)"/>
<g clip-path="url(#clip0_104_540)">
<path d="M16.9979 5.72754L16.8369 6.27447V22.1436L16.9979 22.3043L24.3641 17.9501L16.9979 5.72754Z" fill="#343434"/>
<path d="M16.9979 5.72754L9.63159 17.9501L16.9979 22.3043V14.6018V5.72754Z" fill="#8C8C8C"/>
<path d="M16.998 23.699L16.9072 23.8096V29.4625L16.998 29.7274L24.3686 19.347L16.998 23.699Z" fill="#3C3C3B"/>
<path d="M16.9979 29.7274V23.699L9.63159 19.347L16.9979 29.7274Z" fill="#8C8C8C"/>
<path d="M16.998 22.3043L24.3642 17.9501L16.998 14.6018V22.3043Z" fill="#141414"/>
<path d="M9.63159 17.9501L16.9979 22.3043V14.6018L9.63159 17.9501Z" fill="#393939"/>
</g>
<defs>
<linearGradient id="paint0_linear_104_540" x1="5.02273" y1="0.727539" x2="30.5227" y2="36.6594" gradientUnits="userSpaceOnUse">
<stop stop-color="white"/>
<stop offset="1" stop-color="#D9D9D9" stop-opacity="0.71"/>
</linearGradient>
<clipPath id="clip0_104_540">
<rect width="24" height="24" fill="white" transform="translate(5 5.72754)"/>
</clipPath>
</defs>
</svg>
